<?xml version="1.0" encoding="UTF-8"?>
<svg width="490px" height="490px" viewBox="0 0 490 490" version="1.1" xmlns="http://www.w3.org/2000/svg" xmlns:xlink="http://www.w3.org/1999/xlink">
    <!-- Generator: Sketch 60.1 (88133) - https://sketch.com -->
    <title>Space Rocket</title>
    <desc>Created with Sketch.</desc>
    <defs>
        <path d="M186.91668,0.08208 C290.01564,0.08208 373.59252,83.66004 373.59252,186.75792 C373.59252,289.8558 290.01564,373.43268 186.91668,373.43268 C83.8188,373.43268 0.24084,289.8558 0.24084,186.75792 C0.24084,83.66004 83.8188,0.08208 186.91668,0.08208 Z" id="path-1"></path>
        <path d="M373.59252,186.75792 C373.59252,289.8558 290.01564,373.43268 186.91668,373.43268 C83.8188,373.43268 0.24084,289.8558 0.24084,186.75792 C0.24084,83.66004 83.8188,0.08208 186.91668,0.08208 C290.01564,0.08208 373.59252,83.66004 373.59252,186.75792" id="path-3"></path>
    </defs>
    <g id="Launching-Soon" stroke="none" stroke-width="1" fill="none" fill-rule="evenodd">
        <g id="Desktop-HD" transform="translate(-395.000000, -96.000000)">
            <g id="Space-Rocket" transform="translate(395.000000, 96.000000)">
                <path d="M244.8198,489.64068 C109.61028,489.64068 2.84217094e-14,380.03364 2.84217094e-14,244.82304 C2.84217094e-14,109.61028 109.61028,2.84217094e-14 244.8198,2.84217094e-14 C380.03364,2.84217094e-14 489.64176,109.61028 489.64176,244.82304 C489.64176,380.03364 380.03364,489.64068 244.8198,489.64068 M226.02456,35.50392 C118.7676,45.00792 34.6734,135.0918 34.6734,244.82304 C34.6734,360.88524 128.75976,454.96944 244.8198,454.96944 C360.88308,454.96944 454.96836,360.88524 454.96836,244.82304 C454.96836,135.16956 370.98108,45.13428 263.82996,35.52228 C259.80588,27.79488 255.87252,21.65616 252.38844,17.69688 C252.38304,17.6904 252.37872,17.68608 252.37332,17.6796 C252.37008,17.67528 252.369,17.6742 252.36576,17.67096 C252.3582,17.66232 252.35172,17.65476 252.34524,17.6472 C252.34308,17.64504 252.34308,17.64504 252.34092,17.64288 C249.71868,14.67396 247.3524,12.94272 245.3922,12.69864 C245.36412,12.6954 245.33604,12.69216 245.30904,12.69 L245.30796,12.69 C245.30256,12.68892 245.29608,12.68892 245.2896,12.68784 L245.28744,12.68784 C245.28096,12.68676 245.27556,12.68676 245.26908,12.68568 C245.268,12.68568 245.268,12.68568 245.26692,12.68568 C245.24748,12.68352 245.22696,12.68244 245.20752,12.68028 C245.20644,12.68028 245.20428,12.68028 245.2032,12.68028 C245.19888,12.68028 245.19348,12.6792 245.18808,12.6792 C245.187,12.6792 245.18484,12.6792 245.18268,12.6792 C245.17836,12.67812 245.17296,12.67812 245.16756,12.67812 C245.16648,12.67704 245.1654,12.67704 245.16324,12.67704 C245.15784,12.67704 245.15244,12.67704 245.14704,12.67596 C245.14596,12.67596 245.14488,12.67596 245.1438,12.67596 C245.13084,12.67488 245.11788,12.67488 245.10492,12.66948 C245.10384,12.66948 245.10168,12.66948 245.10168,12.66948 C245.09628,12.66948 245.09088,12.66948 245.08656,12.66948 C245.0844,12.66948 245.08224,12.66948 245.08116,12.66948 C245.07576,12.66948 245.07144,12.66948 245.06712,12.66948 C245.06496,12.66948 245.0628,12.66948 245.06064,12.66948 C245.05632,12.66948 245.05092,12.66948 245.0466,12.66948 C245.04552,12.66948 245.04336,12.66948 245.04228,12.66948 C245.02932,12.66948 245.01636,12.66948 245.0034,12.66948 C245.0034,12.66948 245.00016,12.66948 244.99908,12.66948 C244.99476,12.66948 244.99044,12.66948 244.98504,12.66948 C244.98288,12.66948 244.98072,12.66948 244.97856,12.66948 C244.97424,12.66948 244.971,12.66948 244.96668,12.66948 C244.96452,12.66948 244.96236,12.66948 244.95912,12.66948 C244.95588,12.66948 244.95156,12.66948 244.94724,12.66948 C244.94508,12.66948 244.94292,12.66948 244.94076,12.66948 C244.93428,12.66948 244.92888,12.66948 244.9224,12.66948 C244.91592,12.66948 244.90944,12.66948 244.90404,12.66948 C244.9008,12.66948 244.89972,12.66948 244.89756,12.66948 C244.89324,12.66948 244.88892,12.66948 244.8846,12.66948 C244.88244,12.66948 244.88028,12.66948 244.87812,12.66948 C244.8738,12.66948 244.87056,12.66948 244.86624,12.66948 C244.863,12.66948 244.86084,12.66948 244.85868,12.66948 C244.85436,12.66948 244.85004,12.66948 244.84572,12.66948 C244.84356,12.66948 244.84248,12.66948 244.84032,12.66948 C244.83384,12.66948 244.82844,12.66948 244.82196,12.66948 L244.82088,12.66948 C244.81548,12.66948 244.809,12.66948 244.80252,12.66948 C244.80036,12.66948 244.7982,12.66948 244.79712,12.66948 C244.7928,12.66948 244.78848,12.66948 244.78416,12.66948 C244.78092,12.66948 244.77876,12.66948 244.7766,12.66948 C244.77228,12.66948 244.76796,12.66948 244.76472,12.66948 C244.76148,12.66948 244.7604,12.66948 244.75716,12.66948 C244.75284,12.66948 244.7496,12.66948 244.74528,12.66948 C244.74204,12.66948 244.74096,12.66948 244.7388,12.66948 C244.7334,12.66948 244.72908,12.67488 244.72476,12.67488 C244.7226,12.67488 244.72044,12.67488 244.71936,12.67488 C244.71288,12.67488 244.70748,12.67596 244.701,12.67596 C244.69884,12.67596 244.6956,12.67704 244.69344,12.67704 C244.6902,12.67704 244.68588,12.67704 244.68264,12.67704 C244.6794,12.67704 244.67616,12.67812 244.674,12.67812 C244.67076,12.67812 244.66644,12.67812 244.6632,12.67812 C244.65996,12.6792 244.65672,12.6792 244.65348,12.6792 C244.65132,12.6792 244.64808,12.68028 244.64484,12.68028 C244.6416,12.68028 244.63836,12.68028 244.63512,12.68028 C244.63188,12.68136 244.62864,12.68136 244.6254,12.68136 C244.62216,12.68136 244.61892,12.68244 244.61568,12.68244 C244.61028,12.68244 244.6038,12.68352 244.5984,12.68352 C244.59516,12.6846 244.59192,12.6846 244.58868,12.6846 C244.58652,12.6846 244.58328,12.68568 244.58004,12.68568 C244.5768,12.68568 244.57248,12.68568 244.56924,12.68676 C244.56708,12.68676 244.56384,12.68676 244.56168,12.68676 C244.55844,12.68784 244.55412,12.68784 244.5498,12.68784 C244.54764,12.68892 244.54548,12.68892 244.54332,12.68892 C244.539,12.68892 244.53576,12.69 244.53144,12.69 C244.52928,12.69 244.5282,12.69 244.52604,12.69108 C244.50984,12.69216 244.4958,12.69432 244.4796,12.6954 C244.47852,12.6954 244.47852,12.69648 244.47744,12.69648 C244.47312,12.69648 244.46772,12.69756 244.4634,12.69756 C244.46232,12.69756 244.46016,12.69864 244.45908,12.69864 C244.45476,12.69864 244.44936,12.69972 244.44504,12.69972 C244.44396,12.69972 244.44288,12.7008 244.4418,12.7008 C244.4364,12.7008 244.431,12.70188 244.4256,12.70296 C239.85612,13.3002 233.08344,21.95208 226.02456,35.50392" id="Fill-4" fill="#FFFFFF"></path>
                <path d="M244.8198,454.96944 C128.75976,454.96944 34.6734,360.88524 34.6734,244.82304 C34.6734,135.0918 118.7676,45.00792 226.02456,35.50392 C223.00704,41.29812 219.93444,47.99088 216.96228,55.3284 C124.5888,68.8878 53.4546,148.66092 53.4546,244.7388 C53.4546,350.30124 139.33512,436.18068 244.89756,436.18068 C350.46,436.18068 436.3416,350.30124 436.3416,244.7388 C436.3416,148.68036 365.23224,68.91912 272.88684,55.33596 C269.91576,48.0006 266.84748,41.31648 263.82996,35.52228 C370.98108,45.13428 454.96836,135.16956 454.96836,244.82304 C454.96836,360.88524 360.88308,454.96944 244.8198,454.96944" id="Fill-5" fill="#E1EEF1"></path>
                <g id="Group-44" transform="translate(57.980880, 57.980880)">
                    <mask id="mask-2" fill="white">
                        <use xlink:href="#path-1"></use>
                    </mask>
                    <g id="Clip-7"></g>
                    <polygon id="Fill-6" fill="#1D242E" mask="url(#mask-2)" points="0.2376 373.5072 373.6152 373.5072 373.6152 0 0.2376 0"></polygon>
                    <path d="M28.78524,124.07148 C24.30864,121.55076 19.54152,119.4858 14.54652,117.93816 C38.3076,58.64184 91.81512,14.35536 156.51252,3.65148 C151.14168,17.84808 146.24928,34.01784 142.77924,50.61096 C96.61032,61.08372 56.54448,87.63768 28.78524,124.07148 M336.72348,113.86116 C309.55608,82.70532 272.82312,60.09876 231.10704,50.62284 C227.63808,34.0308 222.74568,17.8578 217.37376,3.66012 C275.30712,13.2624 324.26244,49.7934 350.91252,99.91296 C345.57732,103.90248 340.80156,108.59724 336.72348,113.86116" id="Fill-8" fill="#212C3A" mask="url(#mask-2)"></path>
                    <path d="M55.8468,150.36948 C49.26528,139.43124 39.92328,130.34196 28.78524,124.07148 C56.54448,87.63768 96.61032,61.08372 142.77924,50.61096 C139.98096,63.99216 138.10932,77.64336 137.66004,90.75024 C104.38416,101.412 75.8052,122.5908 55.8468,150.36948 M301.78764,131.16168 C283.72464,112.83516 261.3168,98.8146 236.22408,90.76644 C235.77588,77.65956 233.90424,64.00404 231.10704,50.62284 C272.82312,60.09876 309.55608,82.70532 336.72348,113.86116 C332.97372,118.70064 329.81256,124.0218 327.35124,129.71448 C324.52812,129.38508 321.6618,129.19716 318.7512,129.19716 C312.91164,129.19716 307.233,129.87648 301.78764,131.16168" id="Fill-9" fill="#273E52" mask="url(#mask-2)"></path>
                    <path d="M202.72032,187.57332 C201.01716,180.3546 199.6866,173.77416 198.64872,167.93028 L204.34464,167.93028 L204.34464,159.732 L219.85668,159.732 L219.85668,150.16968 L226.46736,150.16968 L231.35436,151.55964 L256.91364,158.8302 L259.23996,159.49224 C253.99656,166.68612 250.0254,174.86712 247.65588,183.70368 C243.8802,183.37104 240.06456,183.19284 236.20572,183.19284 C224.62488,183.19284 213.40044,184.71672 202.72032,187.57332 M172.37448,182.44656 C163.4094,169.15716 150.22476,158.95116 134.7408,153.75636 L142.46496,151.55856 C142.46496,151.55964 142.46496,151.55964 142.46496,151.55964 L147.35088,150.16968 L154.02528,150.16968 L154.02528,159.732 L169.5384,159.732 L169.5384,167.93028 L175.2732,167.93028 C174.48696,172.36044 173.53224,177.2118 172.37448,182.44656 M63.42516,167.69376 C61.63992,161.54964 59.076,155.73816 55.8468,150.36948 C75.8052,122.5908 104.38416,101.412 137.66004,90.75024 C137.592,92.76444 137.55636,94.76892 137.55636,96.75396 C137.55636,96.96348 137.55636,97.17084 137.55636,97.37928 L102.8862,121.45356 L102.8862,150.43212 C87.90336,152.14608 74.29428,158.36796 63.42516,167.69376 M270.93096,146.85192 L270.93096,121.45356 L236.32668,97.42356 C236.32776,97.20108 236.32776,96.97752 236.32776,96.75396 C236.32776,94.77216 236.2932,92.7774 236.22408,90.76644 C261.3168,98.8146 283.72464,112.83516 301.78764,131.16168 C290.20572,133.89516 279.67896,139.36536 270.93096,146.85192" id="Fill-10" fill="#335B79" mask="url(#mask-2)"></path>
                    <path d="M365.3208,156.83004 C357.65928,141.24672 348.0192,126.81576 336.72348,113.86116 C340.80156,108.59724 345.57732,103.90248 350.91252,99.91296 C359.24688,115.58808 365.3964,132.5808 368.95824,150.50772 C367.67952,152.57268 366.46776,154.67868 365.3208,156.83004 M9.34632,155.15604 C7.6518,154.7532 5.93136,154.41732 4.18824,154.15056 C6.42168,141.60312 9.9198,129.48444 14.54652,117.93816 C19.54152,119.4858 24.30864,121.55076 28.78524,124.07148 C21.39156,133.7742 14.877,144.16812 9.34632,155.15604" id="Fill-11" fill="#212B38" mask="url(#mask-2)"></path>
                    <path d="M335.01492,180.40644 C327.03372,161.95032 315.70128,145.27944 301.78764,131.16168 C307.233,129.87648 312.91164,129.19716 318.7512,129.19716 C321.6618,129.19716 324.52812,129.38508 327.35124,129.71448 C329.81256,124.0218 332.97372,118.70064 336.72348,113.86116 C348.0192,126.81576 357.65928,141.24672 365.3208,156.83004 C361.47168,164.04768 358.37748,171.73296 356.14728,179.77356 C353.33712,179.39988 350.47836,179.1882 347.5656,179.1882 C343.27044,179.1882 339.07572,179.60724 335.01492,180.40644 M41.72148,174.07224 C33.17436,164.8674 21.97908,158.15736 9.34632,155.15604 C14.877,144.16812 21.39156,133.7742 28.78524,124.07148 C39.92328,130.34196 49.26528,139.43124 55.8468,150.36948 C50.49108,157.82364 45.76068,165.74328 41.72148,174.07224" id="Fill-12" fill="#263A4C" mask="url(#mask-2)"></path>
                    <path d="M183.41208,250.7922 C183.25224,250.71444 183.0924,250.63668 182.93256,250.56 C184.26096,237.56652 185.32692,223.83216 185.94252,209.682 C185.94252,209.682 186.0894,224.88408 185.93172,245.27772 C185.00832,247.06836 184.167,248.90868 183.41208,250.7922 M166.84488,244.28088 C166.5252,244.18368 166.2066,244.08864 165.88584,243.9936 C167.07708,239.46192 168.25104,234.78984 169.40124,229.97304 C169.40124,229.97304 168.44976,235.55016 166.84488,244.28088 M154.4886,241.27092 C147.76452,240.02892 140.83416,239.37984 133.75044,239.37984 C130.36248,239.37984 127.01016,239.5386 123.69564,239.82912 C116.30304,212.26212 91.15632,191.9592 61.25652,191.9592 C58.70016,191.9592 56.18268,192.12336 53.70408,192.4128 C50.76324,185.61636 46.68948,179.42256 41.72148,174.07224 C45.76068,165.74328 50.49108,157.82364 55.8468,150.36948 C59.076,155.73816 61.63992,161.54964 63.42516,167.69376 C74.29428,158.36796 87.90336,152.14608 102.8862,150.43212 L102.8862,162.81756 L116.90568,158.8302 L134.7408,153.75636 C150.22476,158.95116 163.4094,169.15716 172.37448,182.44656 C168.75756,198.79344 163.1556,218.85012 154.4886,241.27092 M285.49476,225.7686 C274.18392,216.06588 259.49376,210.18852 243.42444,210.18852 C231.77556,210.18852 220.85136,213.26976 211.41648,218.66112 C207.76932,207.37188 204.93108,196.93908 202.72032,187.57332 C213.40044,184.71672 224.62488,183.19284 236.20572,183.19284 C240.06456,183.19284 243.8802,183.37104 247.65588,183.70368 C250.0254,174.86712 253.99656,166.68612 259.23996,159.49224 L270.93096,162.81756 L270.93096,146.85192 C279.67896,139.36536 290.20572,133.89516 301.78764,131.16168 C315.70128,145.27944 327.03372,161.95032 335.01492,180.40644 C311.25384,185.08392 292.17348,202.78836 285.49476,225.7686" id="Fill-13" fill="#31536F" mask="url(#mask-2)"></path>
                    <path d="M1.92024,171.76968 C2.39868,165.81348 3.159,159.9372 4.18824,154.15056 C5.93136,154.41732 7.6518,154.7532 9.34632,155.15604 C6.62904,160.55388 4.14612,166.10292 1.92024,171.76968 M371.91312,171.76968 C369.9162,166.68504 367.71408,161.69976 365.3208,156.83004 C366.46776,154.67868 367.67952,152.57268 368.95824,150.50772 C370.34064,157.45968 371.33424,164.56392 371.91312,171.76968" id="Fill-14" fill="#202935" mask="url(#mask-2)"></path>
                    <path d="M342.09324,288.47448 C346.0698,274.455 348.19632,259.6644 348.19632,244.3716 C348.19632,221.64624 343.49616,200.01708 335.01492,180.40644 C339.07572,179.60724 343.27044,179.1882 347.5656,179.1882 C350.47836,179.1882 353.33712,179.39988 356.14728,179.77356 C358.37748,171.73296 361.47168,164.04768 365.3208,156.83004 C367.71408,161.69976 369.9162,166.68504 371.91312,171.76968 C372.31056,176.71608 372.51252,181.71108 372.51252,186.75792 C372.51252,224.28468 361.3194,259.2432 342.09324,288.47448 M31.73796,288.47016 C12.5118,259.23888 1.32084,224.28468 1.32084,186.75792 C1.32084,181.71108 1.5228,176.71608 1.92024,171.76968 C4.14612,166.10292 6.62904,160.55388 9.34632,155.15604 C21.97908,158.15736 33.17436,164.8674 41.72148,174.07224 C31.4172,195.318 25.63488,219.17196 25.63488,244.3716 C25.63488,259.659 27.76356,274.45608 31.73796,288.47016" id="Fill-15" fill="#233241" mask="url(#mask-2)"></path>
                    <path d="M186.91668,372.35376 C181.90764,372.35376 176.9472,372.15396 172.03644,371.763 L201.798,371.763 C196.88724,372.15396 191.9268,372.35376 186.91668,372.35376 M227.9394,367.78536 C216.76032,341.55216 202.47084,257.78412 202.47084,257.78412 C215.64576,312.99372 232.0812,349.58844 239.64336,364.7268 C235.79316,365.86944 231.88896,366.89004 227.9394,367.78536 M166.22496,350.26776 C166.22496,350.26776 177.10164,307.59372 182.93256,250.56 C183.0924,250.63668 183.25224,250.71444 183.41208,250.7922 C184.167,248.90868 185.00832,247.06836 185.93172,245.27772 C185.6628,279.8118 184.52016,329.23476 180.30924,344.92932 L166.22496,350.26776 M95.2776,348.11208 C69.687,333.52128 47.87964,313.011 31.73796,288.47016 C27.76356,274.45608 25.63488,259.659 25.63488,244.3716 C25.63488,219.17196 31.4172,195.318 41.72148,174.07224 C46.68948,179.42256 50.76324,185.61636 53.70408,192.4128 C56.18268,192.12336 58.70016,191.9592 61.25652,191.9592 C91.15632,191.9592 116.30304,212.26212 123.69564,239.82912 C127.01016,239.5386 130.36248,239.37984 133.75044,239.37984 C140.83416,239.37984 147.76452,240.02892 154.4886,241.27092 C142.0848,273.35448 123.40836,310.27428 95.2776,348.11208 M278.61948,348.07536 C243.62964,301.00248 223.263,255.33792 211.41648,218.66112 C220.85136,213.26976 231.77556,210.18852 243.42444,210.18852 C259.49376,210.18852 274.18392,216.06588 285.49476,225.7686 C292.17348,202.78836 311.25384,185.08392 335.01492,180.40644 C343.49616,200.01708 348.19632,221.64624 348.19632,244.3716 C348.19632,259.6644 346.0698,274.455 342.09324,288.47448 C325.96452,312.99588 304.18308,333.48672 278.61948,348.07536 M128.06316,344.80944 C128.06316,344.80944 148.71816,309.312 165.88584,243.9936 C166.2066,244.08864 166.5252,244.18368 166.84488,244.28088 C162.03996,270.42336 151.38144,324.81432 142.90452,342.2358 L128.06316,344.80944" id="Fill-16" fill="#294459" mask="url(#mask-2)"></path>
                    <path d="M180.30924,344.92932 L166.22496,350.26776 C166.22496,350.26776 182.62152,285.94296 185.94252,209.682 C185.94252,209.682 187.0074,319.96728 180.30924,344.92932 M128.06316,344.80944 C128.06316,344.80944 151.68276,304.21872 169.40124,229.97304 C169.40124,229.97304 154.2132,318.99636 142.90452,342.2358 L128.06316,344.80944 M228.96648,370.04796 C217.65672,346.80852 202.47084,257.78412 202.47084,257.78412 C218.70216,325.80144 239.88204,365.56704 243.32292,371.763 L297.41904,371.763 C198.07632,254.35296 194.99184,137.82204 194.99184,137.82204 L178.93008,137.82204 C178.93008,137.82204 175.84776,254.35296 76.50396,371.763 L238.84956,371.763 L228.96648,370.04796" id="Fill-17" fill="#FFFFFE" mask="url(#mask-2)"></path>
                    <path d="M210.57948,191.39004 C210.57948,191.39004 240.75576,276.507 255.8682,297.47412 L270.93096,297.47412 C270.93096,297.47412 240.72444,261.51444 210.57948,191.39004" id="Fill-18" fill="#FFFFFE" mask="url(#mask-2)"></path>
                    <path d="M232.74216,215.34768 C232.74216,215.34768 275.51556,294.88428 293.64336,313.308 L308.53008,311.01732 C308.53008,311.01732 273.20652,280.06992 232.74216,215.34768" id="Fill-19" fill="#FFFFFE" mask="url(#mask-2)"></path>
                    <path d="M156.5892,203.3694 C156.5892,203.3694 126.414,288.48852 111.30048,309.45132 L96.23772,309.45132 C96.23772,309.45132 126.4464,273.49272 156.5892,203.3694" id="Fill-20" fill="#FFFFFE" mask="url(#mask-2)"></path>
                    <path d="M134.4276,227.32488 C134.4276,227.32488 91.65312,306.8658 73.5264,325.28628 L58.6386,322.9956 C58.6386,322.9956 93.96324,292.05144 134.4276,227.32488" id="Fill-21" fill="#FFFFFE" mask="url(#mask-2)"></path>
                    <path d="M462.7584,369.69588 C462.7584,423.74016 418.9482,467.55144 364.90392,467.55144 C310.85964,467.55144 267.04836,423.74016 267.04836,369.69588 C267.04836,315.6516 310.85964,271.83924 364.90392,271.83924 C418.9482,271.83924 462.7584,315.6516 462.7584,369.69588" id="Fill-22" fill="#FFFFFE" mask="url(#mask-2)"></path>
                    <path d="M313.713,388.07208 C313.713,442.11636 269.90064,485.92872 215.85744,485.92872 C161.81316,485.92872 118.00188,442.11636 118.00188,388.07208 C118.00188,334.0278 161.81316,290.21652 215.85744,290.21652 C269.90064,290.21652 313.713,334.0278 313.713,388.07208" id="Fill-23" fill="#FFFFFE" mask="url(#mask-2)"></path>
                    <path d="M525.03552,262.9314 C525.03552,316.97568 481.22316,360.78804 427.17996,360.78804 C373.13568,360.78804 329.3244,316.97568 329.3244,262.9314 C329.3244,208.88712 373.13568,165.07692 427.17996,165.07692 C481.22316,165.07692 525.03552,208.88712 525.03552,262.9314" id="Fill-24" fill="#FFFFFE" mask="url(#mask-2)"></path>
                    <path d="M169.4142,391.9158 C169.4142,445.96008 125.60292,489.77136 71.55864,489.77136 C17.51436,489.77136 -26.29692,445.96008 -26.29692,391.9158 C-26.29692,337.87152 17.51436,294.06132 71.55864,294.06132 C125.60292,294.06132 169.4142,337.87152 169.4142,391.9158" id="Fill-25" fill="#FFFFFE" mask="url(#mask-2)"></path>
                    <path d="M41.8338,335.21364 C41.8338,389.25792 -1.97748,433.0692 -56.02176,433.0692 C-110.06496,433.0692 -153.87732,389.25792 -153.87732,335.21364 C-153.87732,281.16936 -110.06496,237.35916 -56.02176,237.35916 C-1.97748,237.35916 41.8338,281.16936 41.8338,335.21364" id="Fill-26" fill="#FFFFFE" mask="url(#mask-2)"></path>
                    <path d="M27.7452,265.05792 C27.7452,319.1022 -16.06608,362.91348 -70.11036,362.91348 C-124.15464,362.91348 -167.96484,319.1022 -167.96484,265.05792 C-167.96484,211.01364 -124.15464,167.20236 -70.11036,167.20236 C-16.06608,167.20236 27.7452,211.01364 27.7452,265.05792" id="Fill-27" fill="#FFFFFE" mask="url(#mask-2)"></path>
                    <path d="M87.30288,294.06132 C87.30288,324.83268 62.35704,349.78068 31.5846,349.78068 C0.81108,349.78068 -24.13476,324.83268 -24.13476,294.06132 C-24.13476,263.2878 0.81108,238.34088 31.5846,238.34088 C62.35704,238.34088 87.30288,263.2878 87.30288,294.06132" id="Fill-28" fill="#FFFFFE" mask="url(#mask-2)"></path>
                    <path d="M334.0548,305.06868 C334.0548,335.8422 309.10788,360.78804 278.33544,360.78804 C247.563,360.78804 222.61608,335.8422 222.61608,305.06868 C222.61608,274.29516 247.563,249.34932 278.33544,249.34932 C309.10788,249.34932 334.0548,274.29516 334.0548,305.06868" id="Fill-29" fill="#FFFFFE" mask="url(#mask-2)"></path>
                    <path d="M391.71708,271.83924 C391.71708,302.61276 366.77124,327.5586 335.99772,327.5586 C305.22528,327.5586 280.27944,302.61276 280.27944,271.83924 C280.27944,241.06788 305.22528,216.11988 335.99772,216.11988 C366.77124,216.11988 391.71708,241.06788 391.71708,271.83924" id="Fill-30" fill="#FFFFFE" mask="url(#mask-2)"></path>
                    <path d="M177.05628,320.77728 C177.05628,351.5508 152.10936,376.49556 121.338,376.49556 C90.56448,376.49556 65.61756,351.5508 65.61756,320.77728 C65.61756,290.00268 90.56448,265.05792 121.338,265.05792 C152.10936,265.05792 177.05628,290.00268 177.05628,320.77728" id="Fill-31" fill="#FFFFFE" mask="url(#mask-2)"></path>
                    <path d="M-11.4318,331.19712 C3.31236,331.19712 15.85224,337.66848 20.49192,346.69728 C17.01756,332.28792 4.0446,321.57864 -11.4318,321.57864 C-26.90928,321.57864 -39.88224,332.28792 -43.35552,346.69728 C-38.71692,337.66848 -26.17596,331.19712 -11.4318,331.19712" id="Fill-32" fill="#E5E6E3" mask="url(#mask-2)"></path>
                    <path d="M33.23268,313.34364 C27.24516,311.06484 20.53188,310.5108 13.83696,312.13944 C4.72068,314.3556 -2.56716,320.18004 -6.8904,327.72492 C-4.6494,327.85344 -2.4948,328.34484 -0.49356,329.1678 C4.0338,325.76148 9.69948,323.04204 16.10928,321.48576 C18.61812,320.87556 21.10536,320.48568 23.54292,320.28156 C26.00424,317.09772 29.36736,314.64504 33.23268,313.34364" id="Fill-33" fill="#E5E6E3" mask="url(#mask-2)"></path>
                    <path d="M62.17128,318.51144 C81.3942,323.217 95.68044,335.66076 98.8462182,348.91128 C98.91936,329.01444 85.4226,310.91148 65.24388,305.9694 C45.06408,301.02732 24.72984,310.8456 15.6006,328.52412 C24.53112,318.23496 42.94728,313.80372 62.17128,318.51144" id="Fill-34" fill="#E5E6E3" mask="url(#mask-2)"></path>
                    <path d="M197.51688,326.32416 C219.83616,326.32416 238.81824,336.12084 245.84148,349.78716 C240.58296,327.9744 220.94424,311.76576 197.51688,311.76576 C174.08952,311.76576 154.4508,327.9744 149.19228,349.78716 C156.21552,336.12084 175.1976,326.32416 197.51688,326.32416" id="Fill-35" fill="#E5E6E3" mask="url(#mask-2)"></path>
                    <path d="M213.95232,318.24792 C214.17804,318.24144 214.39512,318.2166 214.62516,318.2166 C219.267,318.2166 224.09892,320.13144 227.89188,323.2494 C238.8042,305.40564 255.58524,294.69636 270.19224,295.15212 C248.83092,289.2564 225.46404,298.28412 213.95232,318.24792" id="Fill-36" fill="#E5E6E3" mask="url(#mask-2)"></path>
                    <path d="M387.67896,225.78804 C408.19896,207.21204 433.80036,200.4156 451.63008,207.13644 C428.64228,191.45916 397.10196,192.9042 375.56244,212.39928 C354.02508,231.89652 349.45992,263.13768 362.77956,287.56728 C357.86124,269.16084 367.16112,244.35864 387.67896,225.78804" id="Fill-37" fill="#E5E6E3" mask="url(#mask-2)"></path>
                    <path d="M360.18756,254.26224 C355.57488,253.78056 350.78724,254.22984 346.09248,255.75372 C330.71868,260.7336 321.27084,275.5458 322.45884,290.98008 C324.15984,280.51704 334.53864,270.05292 349.18776,265.30848 C351.96228,264.40992 354.73248,263.77056 357.45192,263.36772 C357.62472,260.10504 358.59024,256.99572 360.18756,254.26224" id="Fill-38" fill="#E5E6E3" mask="url(#mask-2)"></path>
                    <path d="M-10.4274,233.1936 C5.29416,244.18584 13.84236,260.43228 12.05928,273.51648 C19.09656,255.56148 13.2462,234.4734 -3.25728,222.93792 C-19.7586,211.3992 -41.57568,213.1434 -56.02176,225.92088 C-44.34372,219.753 -26.14896,222.20136 -10.4274,233.1936" id="Fill-39" fill="#E5E6E3" mask="url(#mask-2)"></path>
                    <path d="M116.10972,292.91436 C130.04496,296.93088 140.13648,306.4608 142.0632,316.25856 C142.70256,301.69152 133.35624,288.03708 118.72656,283.82508 C104.09904,279.60768 88.91964,286.19568 81.7128,298.87056 C88.55676,291.6 102.17232,288.9 116.10972,292.91436" id="Fill-40" fill="#E5E6E3" mask="url(#mask-2)"></path>
                    <path d="M9.63144,249.0966 C11.89188,252.25128 13.30452,256.257 13.6296,260.30916 C27.84996,257.00004 41.37264,259.24644 49.54824,266.1066 C40.34232,253.60128 24.96312,247.08996 9.63144,249.0966" id="Fill-41" fill="#E5E6E3" mask="url(#mask-2)"></path>
                    <path d="M331.45524,329.2758 C343.61712,324.648 355.9896,326.04768 362.64888,332.03628 C355.2606,321.24492 341.20116,316.48428 328.43448,321.34212 C315.66996,326.20212 308.33244,339.10488 309.99024,352.07784 C310.98276,343.17648 319.29336,333.90576 331.45524,329.2758" id="Fill-42" fill="#E5E6E3" mask="url(#mask-2)"></path>
                    <path d="M348.02568,324.08856 C350.65764,324.02268 353.44296,324.75924 355.83948,326.1222 C359.40564,316.88064 365.823,310.15224 372.789,308.18232 C362.2644,308.57868 352.74528,314.7228 348.02568,324.08856" id="Fill-43" fill="#E5E6E3" mask="url(#mask-2)"></path>
                </g>
                <g id="Group-79" transform="translate(57.980880, 57.980880)">
                    <mask id="mask-4" fill="white">
                        <use xlink:href="#path-3"></use>
                    </mask>
                    <g id="Clip-46"></g>
                    <path d="M330.46704,6.83208 C330.46704,7.96284 329.55012,8.88084 328.41936,8.88084 C327.29076,8.88084 326.37276,7.96284 326.37276,6.83208 C326.37276,5.70132 327.29076,4.78656 328.41936,4.78656 C329.55012,4.78656 330.46704,5.70132 330.46704,6.83208" id="Fill-45" fill="#FFFFFE" mask="url(#mask-4)"></path>
                    <path d="M3.0996,-1.81008 C3.0996,-0.6804 2.18268,0.23652 1.053,0.23652 C-0.07668,0.23652 -0.9936,-0.6804 -0.9936,-1.81008 C-0.9936,-2.94084 -0.07668,-3.85776 1.053,-3.85776 C2.18268,-3.85776 3.0996,-2.94084 3.0996,-1.81008" id="Fill-47" fill="#FFFFFE" mask="url(#mask-4)"></path>
                    <path d="M79.52148,38.826 C79.52148,39.95568 78.60456,40.87368 77.4738,40.87368 C76.34412,40.87368 75.4272,39.95568 75.4272,38.826 C75.4272,37.69524 76.34412,36.7794 77.4738,36.7794 C78.60456,36.7794 79.52148,37.69524 79.52148,38.826" id="Fill-48" fill="#FFFFFE" mask="url(#mask-4)"></path>
                    <path d="M1.053,91.59372 C1.053,92.7234 0.13608,93.63924 -0.9936,93.63924 C-2.12436,93.63924 -3.0402,92.7234 -3.0402,91.59372 C-3.0402,90.46296 -2.12436,89.54496 -0.9936,89.54496 C0.13608,89.54496 1.053,90.46296 1.053,91.59372" id="Fill-49" fill="#FFFFFE" mask="url(#mask-4)"></path>
                    <path d="M290.81592,40.87368 C290.81592,42.00444 289.90008,42.92028 288.76932,42.92028 C287.63964,42.92028 286.72272,42.00444 286.72272,40.87368 C286.72272,39.74292 287.63964,38.826 288.76932,38.826 C289.90008,38.826 290.81592,39.74292 290.81592,40.87368" id="Fill-50" fill="#FFFFFE" mask="url(#mask-4)"></path>
                    <path d="M359.7318,91.59372 C359.7318,92.7234 358.8138,93.63924 357.6852,93.63924 C356.55552,93.63924 355.63752,92.7234 355.63752,91.59372 C355.63752,90.46296 356.55552,89.54496 357.6852,89.54496 C358.8138,89.54496 359.7318,90.46296 359.7318,91.59372" id="Fill-51" fill="#FFFFFE" mask="url(#mask-4)"></path>
                    <path d="M3.74328,44.96796 C3.74328,45.32328 3.456,45.61056 3.0996,45.61056 C2.7432,45.61056 2.45592,45.32328 2.45592,44.96796 C2.45592,44.61156 2.7432,44.3232 3.0996,44.3232 C3.456,44.3232 3.74328,44.61156 3.74328,44.96796" id="Fill-52" fill="#FFFFFE" mask="url(#mask-4)"></path>
                    <path d="M48.36132,0.23652 C48.36132,0.59292 48.07296,0.8802 47.71764,0.8802 C47.36124,0.8802 47.07288,0.59292 47.07288,0.23652 C47.07288,-0.1188 47.36124,-0.40716 47.71764,-0.40716 C48.07296,-0.40716 48.36132,-0.1188 48.36132,0.23652" id="Fill-53" fill="#FFFFFE" mask="url(#mask-4)"></path>
                    <path d="M29.59632,50.99544 C29.59632,51.35076 29.30796,51.63912 28.95264,51.63912 C28.59732,51.63912 28.30788,51.35076 28.30788,50.99544 C28.30788,50.64012 28.59732,50.35068 28.95264,50.35068 C29.30796,50.35068 29.59632,50.64012 29.59632,50.99544" id="Fill-54" fill="#FFFFFE" mask="url(#mask-4)"></path>
                    <path d="M110.86956,14.60268 C110.86956,14.96016 110.58228,15.24744 110.22588,15.24744 C109.86948,15.24744 109.5822,14.96016 109.5822,14.60268 C109.5822,14.24736 109.86948,13.96008 110.22588,13.96008 C110.58228,13.96008 110.86956,14.24736 110.86956,14.60268" id="Fill-55" fill="#FFFFFE" mask="url(#mask-4)"></path>
                    <path d="M126.26064,44.3232 C126.26064,44.67852 125.97228,44.96796 125.61588,44.96796 C125.26056,44.96796 124.9722,44.67852 124.9722,44.3232 C124.9722,43.96788 125.26056,43.67844 125.61588,43.67844 C125.97228,43.67844 126.26064,43.96788 126.26064,44.3232" id="Fill-56" fill="#FFFFFE" mask="url(#mask-4)"></path>
                    <path d="M62.91756,66.12084 C62.91756,66.47508 62.6292,66.76344 62.27388,66.76344 C61.91748,66.76344 61.62912,66.47508 61.62912,66.12084 C61.62912,65.76444 61.91748,65.475 62.27388,65.475 C62.6292,65.475 62.91756,65.76444 62.91756,66.12084" id="Fill-57" fill="#FFFFFE" mask="url(#mask-4)"></path>
                    <path d="M153.9324,0.23652 C153.9324,0.59292 153.64404,0.8802 153.28872,0.8802 C152.93232,0.8802 152.64396,0.59292 152.64396,0.23652 C152.64396,-0.1188 152.93232,-0.40716 153.28872,-0.40716 C153.64404,-0.40716 153.9324,-0.1188 153.9324,0.23652" id="Fill-58" fill="#FFFFFE" mask="url(#mask-4)"></path>
                    <path d="M80.16516,104.97384 C80.16516,105.32916 79.8768,105.6186 79.52148,105.6186 C79.16508,105.6186 78.87672,105.32916 78.87672,104.97384 C78.87672,104.61852 79.16508,104.33016 79.52148,104.33016 C79.8768,104.33016 80.16516,104.61852 80.16516,104.97384" id="Fill-59" fill="#FFFFFE" mask="url(#mask-4)"></path>
                    <path d="M40.51404,128.4984 C40.51404,128.8548 40.22568,129.14208 39.87036,129.14208 C39.51396,129.14208 39.2256,128.8548 39.2256,128.4984 C39.2256,128.142 39.51396,127.85472 39.87036,127.85472 C40.22568,127.85472 40.51404,128.142 40.51404,128.4984" id="Fill-60" fill="#FFFFFE" mask="url(#mask-4)"></path>
                    <path d="M125.61588,93.63924 C125.61588,93.99564 125.32752,94.28508 124.9722,94.28508 C124.6158,94.28508 124.32852,93.99564 124.32852,93.63924 C124.32852,93.285 124.6158,92.99556 124.9722,92.99556 C125.32752,92.99556 125.61588,93.285 125.61588,93.63924" id="Fill-61" fill="#FFFFFE" mask="url(#mask-4)"></path>
                    <path d="M78.11856,120.09924 C78.11856,120.45564 77.82912,120.744 77.4738,120.744 C77.11848,120.744 76.83012,120.45564 76.83012,120.09924 C76.83012,119.74392 77.11848,119.45556 77.4738,119.45556 C77.82912,119.45556 78.11856,119.74392 78.11856,120.09924" id="Fill-62" fill="#FFFFFE" mask="url(#mask-4)"></path>
                    <path d="M103.62924,45.61056 C103.62924,45.96804 103.34088,46.25532 102.98448,46.25532 C102.62916,46.25532 102.3408,45.96804 102.3408,45.61056 C102.3408,45.25524 102.62916,44.96796 102.98448,44.96796 C103.34088,44.96796 103.62924,45.25524 103.62924,45.61056" id="Fill-63" fill="#FFFFFE" mask="url(#mask-4)"></path>
                    <path d="M236.98872,15.24744 C236.98872,15.60276 236.70036,15.8922 236.34396,15.8922 C235.98756,15.8922 235.6992,15.60276 235.6992,15.24744 C235.6992,14.89212 235.98756,14.60268 236.34396,14.60268 C236.70036,14.60268 236.98872,14.89212 236.98872,15.24744" id="Fill-64" fill="#FFFFFE" mask="url(#mask-4)"></path>
                    <path d="M254.5776,45.61056 C254.5776,45.96804 254.28924,46.25532 253.93284,46.25532 C253.57644,46.25532 253.28808,45.96804 253.28808,45.61056 C253.28808,45.25524 253.57644,44.96796 253.93284,44.96796 C254.28924,44.96796 254.5776,45.25524 254.5776,45.61056" id="Fill-65" fill="#FFFFFE" mask="url(#mask-4)"></path>
                    <path d="M277.6248,0.8802 C277.6248,1.23552 277.33644,1.52496 276.98004,1.52496 C276.62364,1.52496 276.33636,1.23552 276.33636,0.8802 C276.33636,0.52488 276.62364,0.23652 276.98004,0.23652 C277.33644,0.23652 277.6248,0.52488 277.6248,0.8802" id="Fill-66" fill="#FFFFFE" mask="url(#mask-4)"></path>
                    <path d="M338.88132,38.826 C338.88132,39.18132 338.59512,39.47076 338.23872,39.47076 C337.88232,39.47076 337.59396,39.18132 337.59396,38.826 C337.59396,38.47068 337.88232,38.18232 338.23872,38.18232 C338.59512,38.18232 338.88132,38.47068 338.88132,38.826" id="Fill-67" fill="#FFFFFE" mask="url(#mask-4)"></path>
                    <path d="M314.0154,57.02184 C314.0154,57.37716 313.72812,57.6666 313.37172,57.6666 C313.01532,57.6666 312.72804,57.37716 312.72804,57.02184 C312.72804,56.66652 313.01532,56.37708 313.37172,56.37708 C313.72812,56.37708 314.0154,56.66652 314.0154,57.02184" id="Fill-68" fill="#FFFFFE" mask="url(#mask-4)"></path>
                    <path d="M338.88132,70.32744 C338.88132,70.68276 338.59512,70.9722 338.23872,70.9722 C337.88232,70.9722 337.59396,70.68276 337.59396,70.32744 C337.59396,69.97212 337.88232,69.68268 338.23872,69.68268 C338.59512,69.68268 338.88132,69.97212 338.88132,70.32744" id="Fill-69" fill="#FFFFFE" mask="url(#mask-4)"></path>
                    <path d="M313.37172,129.14208 C313.37172,129.49848 313.08444,129.78684 312.72804,129.78684 C312.37056,129.78684 312.08328,129.49848 312.08328,129.14208 C312.08328,128.78568 312.37056,128.4984 312.72804,128.4984 C313.08444,128.4984 313.37172,128.78568 313.37172,129.14208" id="Fill-70" fill="#FFFFFE" mask="url(#mask-4)"></path>
                    <path d="M287.3664,83.67084 C287.3664,84.02724 287.07804,84.31452 286.72272,84.31452 C286.36632,84.31452 286.07796,84.02724 286.07796,83.67084 C286.07796,83.31552 286.36632,83.02716 286.72272,83.02716 C287.07804,83.02716 287.3664,83.31552 287.3664,83.67084" id="Fill-71" fill="#FFFFFE" mask="url(#mask-4)"></path>
                    <path d="M253.93284,84.31452 C253.93284,84.66984 253.64448,84.95928 253.28808,84.95928 C252.93168,84.95928 252.64548,84.66984 252.64548,84.31452 C252.64548,83.9592 252.93168,83.67084 253.28808,83.67084 C253.64448,83.67084 253.93284,83.9592 253.93284,84.31452" id="Fill-72" fill="#FFFFFE" mask="url(#mask-4)"></path>
                    <path d="M288.01116,109.18368 C288.01116,109.539 287.7228,109.82628 287.3664,109.82628 C287.01,109.82628 286.72272,109.539 286.72272,109.18368 C286.72272,108.82728 287.01,108.53784 287.3664,108.53784 C287.7228,108.53784 288.01116,108.82728 288.01116,109.18368" id="Fill-73" fill="#FFFFFE" mask="url(#mask-4)"></path>
                    <path d="M358.32888,143.7534 C358.32888,144.11088 358.0416,144.39816 357.6852,144.39816 C357.3288,144.39816 357.04044,144.11088 357.04044,143.7534 C357.04044,143.39808 357.3288,143.1108 357.6852,143.1108 C358.0416,143.1108 358.32888,143.39808 358.32888,143.7534" id="Fill-74" fill="#FFFFFE" mask="url(#mask-4)"></path>
                    <path d="M348.05484,164.37492 C348.05484,164.73132 347.76864,165.01968 347.41224,165.01968 C347.05584,165.01968 346.76748,164.73132 346.76748,164.37492 C346.76748,164.0196 347.05584,163.73232 347.41224,163.73232 C347.76864,163.73232 348.05484,164.0196 348.05484,164.37492" id="Fill-75" fill="#FFFFFE" mask="url(#mask-4)"></path>
                    <path d="M369.85248,32.15484 C369.85248,32.51124 369.5652,32.79852 369.2088,32.79852 C368.8524,32.79852 368.56512,32.51124 368.56512,32.15484 C368.56512,31.79844 368.8524,31.51116 369.2088,31.51116 C369.5652,31.51116 369.85248,31.79844 369.85248,32.15484" id="Fill-76" fill="#FFFFFE" mask="url(#mask-4)"></path>
                    <path d="M39.87036,89.54496 C39.87036,89.90136 39.582,90.1908 39.2256,90.1908 C38.8692,90.1908 38.58192,89.90136 38.58192,89.54496 C38.58192,89.19072 38.8692,88.90128 39.2256,88.90128 C39.582,88.90128 39.87036,89.19072 39.87036,89.54496" id="Fill-77" fill="#FFFFFE" mask="url(#mask-4)"></path>
                    <path d="M228.5334,38.18232 C228.5334,38.53872 228.2472,38.826 227.8908,38.826 C227.5344,38.826 227.24604,38.53872 227.24604,38.18232 C227.24604,37.82484 227.5344,37.53864 227.8908,37.53864 C228.2472,37.53864 228.5334,37.82484 228.5334,38.18232" id="Fill-78" fill="#FFFFFE" mask="url(#mask-4)"></path>
                </g>
                <path d="M244.89756,59.14296 C142.56,59.14296 59.30172,142.40124 59.30172,244.7388 C59.30172,347.07636 142.56,430.33464 244.89756,430.33464 C347.2362,430.33464 430.4934,347.07636 430.4934,244.7388 C430.4934,142.40124 347.2362,59.14296 244.89756,59.14296 M244.89756,436.18068 C139.33512,436.18068 53.4546,350.30124 53.4546,244.7388 C53.4546,139.17636 139.33512,53.29584 244.89756,53.29584 C350.46,53.29584 436.3416,139.17636 436.3416,244.7388 C436.3416,350.30124 350.46,436.18068 244.89756,436.18068" id="Fill-80" fill="#FFFFFE"></path>
                <polyline id="Fill-81" fill="#F3F4F1" points="201.75804 151.04016 217.51416 204.68484 160.86708 220.79844 160.86708 179.43444 201.75804 151.04016"></polyline>
                <polyline id="Fill-82" fill="#AB2531" points="174.88656 216.81108 160.86708 220.79844 160.86708 179.43444 174.88656 169.7004 174.88656 216.81108"></polyline>
                <polyline id="Fill-83" fill="#355873" points="200.44584 209.54052 200.44584 209.54052 205.33068 208.15056 205.33176 208.15056 200.44584 209.54052"></polyline>
                <path d="M200.44584,209.54052 C197.63676,194.5188 189.7992,180.0468 184.1184,171.05256 L187.72776,167.69808 L183.60324,170.24148 C182.48544,168.4962 181.46484,166.97988 180.59976,165.73248 L195.53724,155.36016 C195.59016,177.78096 198.45648,195.12468 203.36508,208.15056 L205.33068,208.15056 L200.44584,209.53944" id="Fill-84" fill="#DEDFDA"></path>
                <path d="M174.88656,179.63424 L174.88656,175.61664 L183.60324,170.24148 C183.7728,170.50716 183.94452,170.77608 184.1184,171.05256 L174.88656,179.63424" id="Fill-85" fill="#FBFBF9"></path>
                <polyline id="Fill-86" fill="#D3878B" points="165.59532 196.27164 165.59532 181.34604 174.88656 175.61664 174.88656 179.63424 170.32248 183.8754 165.59532 196.27164"></polyline>
                <path d="M184.1184,171.05256 C183.94452,170.77608 183.7728,170.50716 183.60324,170.24148 L187.72776,167.69808 L184.1184,171.05256" id="Fill-87" fill="#F2F2EF"></path>
                <polyline id="Fill-88" fill="#F3F4F1" points="288.02304 151.04016 272.26476 204.68484 328.91184 220.79844 328.91184 179.43444 288.02304 151.04016"></polyline>
                <polyline id="Fill-89" fill="#AB2531" points="314.89452 216.81108 328.91184 220.79844 328.91184 179.43444 314.89452 169.7004 314.89452 216.81108"></polyline>
                <polyline id="Fill-90" fill="#355873" points="289.33524 209.54052 284.44824 208.15056 289.33524 209.54052"></polyline>
                <path d="M289.33524,209.54052 L284.44824,208.15056 L286.48188,208.15056 C291.38724,195.13332 294.25248,177.8058 294.30756,155.40444 L309.18024,165.73248 C308.42532,166.82112 307.5516,168.11496 306.59796,169.587 L303.53508,167.69808 L306.2124,170.1864 C300.50028,179.09856 292.23504,194.02632 289.33524,209.54052" id="Fill-91" fill="#DEDFDA"></path>
                <path d="M314.89452,178.25616 L306.2124,170.1864 C306.34308,169.98336 306.47052,169.78356 306.59796,169.587 L314.89452,174.70296 L314.89452,178.25616" id="Fill-92" fill="#FBFBF9"></path>
                <polyline id="Fill-93" fill="#D3878B" points="325.66644 196.27164 320.93928 183.8754 314.89452 178.25616 314.89452 174.70296 325.66644 181.34604 325.66644 196.27164"></polyline>
                <path d="M306.2124,170.1864 L303.53508,167.69808 L306.59796,169.587 C306.47052,169.78356 306.34308,169.98336 306.2124,170.1864" id="Fill-94" fill="#F2F2EF"></path>
                <polygon id="Fill-95" fill="#AB2531" points="227.51928 225.91116 262.32552 225.91116 262.32552 210.90996 227.51928 210.90996"></polygon>
                <polyline id="Fill-96" fill="#8B8E8D" points="265.0482 233.172 224.7966 233.172 227.51928 223.9056 262.32552 223.9056 265.0482 233.172"></polyline>
                <polygon id="Fill-97" fill="#CDCECA" points="212.00616 217.71288 277.83756 217.71288 277.83756 199.72116 212.00616 199.72116"></polygon>
                <polyline id="Fill-98" fill="#BDBEBB" points="277.83756 213.92424 217.87164 208.71756 225.19188 208.15056 277.83756 208.15056 277.83756 213.92424"></polyline>
                <path d="M286.48188,208.15056 C291.43584,195.00372 294.30864,177.4602 294.30864,154.73484 C294.30864,91.69632 258.62112,12.66948 244.9224,12.66948 C231.22476,12.66948 195.53724,91.69632 195.53724,154.73484 C195.53724,177.4602 198.41112,195.00372 203.36508,208.15056 L286.48188,208.15056" id="Fill-99" fill="#F3F4F1"></path>
                <path d="M196.62696,134.73 L293.21784,134.73 C292.41648,126.99504 291.19932,119.178 289.66248,111.43008 L200.18448,111.43008 C198.64548,119.178 197.4294,126.99504 196.62696,134.73" id="Fill-100" fill="#AB2531"></path>
                <path d="M220.40208,47.22516 L269.4438,47.22516 C260.23788,26.51076 250.65612,12.66948 244.9224,12.66948 C239.19084,12.66948 229.60908,26.51076 220.40208,47.22516" id="Fill-101" fill="#AB2531"></path>
                <path d="M197.94024,187.17372 C199.26108,195.1398 201.08952,202.68036 203.36508,208.71756 L286.48188,208.71756 C288.75636,202.68036 290.5848,195.1398 291.90564,187.17372 L197.94024,187.17372" id="Fill-102" fill="#AB2531"></path>
                <path d="M220.40208,61.128 C221.7726,55.88352 223.29108,51.273 224.88084,47.22516 L230.202,47.22516 C224.24256,54.18468 220.40208,61.128 220.40208,61.128" id="Fill-103" fill="#FBFBF9"></path>
                <path d="M230.202,47.22516 L224.88084,47.22516 C229.40712,35.70372 234.5166,28.73556 238.4424,24.66828 C238.45104,24.66072 241.23852,21.44988 245.18592,21.44988 C246.92472,21.44988 248.88708,22.07196 250.93692,23.86584 C251.26416,24.15312 251.5698,24.4566 251.88084,24.75576 C252.02124,24.90156 252.16056,25.0344 252.29556,25.15968 C257.08644,29.9106 260.48844,35.25768 260.48844,35.25768 C257.93424,33.84288 255.37356,33.22728 252.84528,33.22728 C244.31868,33.22728 236.18952,40.2354 230.202,47.22516" id="Fill-104" fill="#D3878B"></path>
                <path d="M274.97772,98.74764 C274.97772,115.34508 261.52308,128.8008 244.9224,128.8008 C228.32496,128.8008 214.86816,115.34508 214.86816,98.74764 C214.86816,82.14804 228.32496,68.69232 244.9224,68.69232 C261.52308,68.69232 274.97772,82.14804 274.97772,98.74764" id="Fill-105" fill="#929592"></path>
                <path d="M265.3668,98.74764 C265.3668,110.03796 256.21488,119.19096 244.9224,119.19096 C233.63316,119.19096 224.47908,110.03796 224.47908,98.74764 C224.47908,87.45624 233.63316,78.30432 244.9224,78.30432 C256.21488,78.30432 265.3668,87.45624 265.3668,98.74764" id="Fill-106" fill="#FFFFFE"></path>
                <path d="M262.93356,98.74764 C262.93356,108.69444 254.87028,116.75772 244.9224,116.75772 C234.97668,116.75772 226.91124,108.69444 226.91124,98.74764 C226.91124,88.79976 234.97668,80.73648 244.9224,80.73648 C254.87028,80.73648 262.93356,88.79976 262.93356,98.74764" id="Fill-107" fill="#359FCD"></path>
                <path d="M241.10892,116.34948 C238.50828,115.78788 236.115,114.66792 234.06516,113.11596 L259.29072,87.88932 C260.84484,89.93916 261.9648,92.33136 262.52532,94.93308 L241.10892,116.34948" id="Fill-108" fill="#93CFE3"></path>
            </g>
        </g>
    </g>
</svg>