<?xml version="1.0" encoding="UTF-8"?>
<svg width="18px" height="14px" viewBox="0 0 18 14" version="1.1" xmlns="http://www.w3.org/2000/svg" xmlns:xlink="http://www.w3.org/1999/xlink">
    <!-- Generator: Sketch 60.1 (88133) - https://sketch.com -->
    <title>Shape</title>
    <desc>Created with Sketch.</desc>
    <g id="Launching-Soon" stroke="none" stroke-width="1" fill="none" fill-rule="evenodd">
        <g id="Desktop-HD" transform="translate(-794.000000, -727.000000)" fill="#FFFFFF" fill-rule="nonzero">
            <g id="Group-3" transform="translate(455.000000, 641.000000)">
                <g id="Group-2" transform="translate(0.000000, 73.000000)">
                    <g id="Group" transform="translate(333.000000, 5.000000)">
                        <path d="M23.9459457,8.19709844 C23.9370679,8.18218945 23.9271313,8.1677905 23.9161766,8.15394083 C23.858308,8.08096524 23.7780413,8.03239331 23.6908107,8.01155996 C23.6906479,8.01152073 23.6905257,8.01148149 23.6903628,8.01144226 C23.6902406,8.01140302 23.6899555,8.01136379 23.6897519,8.01132455 C23.6895076,8.01124609 23.6892632,8.01112838 23.6890596,8.01116762 C23.6821773,8.00951978 23.675295,8.00810735 23.6683312,8.00685186 C23.6680054,8.00689109 23.6678832,8.00677339 23.6676389,8.00673415 C23.6674353,8.00669492 23.6672724,8.00669492 23.6670687,8.00665569 C23.5954762,7.99382611 23.5202185,7.99931889 23.449359,8.02509575 L6.27028301,13.9349024 C6.11764998,13.9873978 6.01184939,14.122128 6.00093539,14.2779269 C5.98998067,14.4337259 6.07598947,14.5809326 6.2199076,14.6527704 L9.72505109,16.4021051 L10.9455452,21.6862834 C10.9562963,21.7372486 10.9776763,21.7866052 11.0098482,21.8311753 C11.0251604,21.8524402 11.0425902,21.8721358 11.0617711,21.8899873 C11.1122687,21.9370291 11.1726215,21.9691227 11.2365579,21.9859934 C11.2710918,21.995135 11.3072546,22 11.3443947,22 C11.345087,22 11.3457386,22 11.3464309,22 C11.4445347,21.9996077 11.5428014,21.9652385 11.6206247,21.8961471 L14.9287869,18.9583303 L18.5599707,20.7237511 C18.6623912,20.7735785 18.7819157,20.7793851 18.8891009,20.7398763 C18.9962862,20.7003283 19.0811547,20.619035 19.1228152,20.516006 L23.9698914,8.54047606 C23.9769366,8.5237623 23.9827601,8.50657772 23.9874026,8.48911851 C23.994285,8.46302777 23.9983574,8.43654469 23.9995791,8.41010085 C24.0029999,8.3375176 23.9856108,8.26360039 23.9459457,8.19709844 Z M7.42545607,14.3707158 L19.7840893,10.1192206 L10.0675795,15.6893376 L7.42545607,14.3707158 Z M11.5802266,16.8891976 C11.5801859,16.8892761 11.5801452,16.8893938 11.5800637,16.8894722 C11.5799823,16.8895507 11.5799415,16.8897076 11.5799008,16.8897861 C11.5797786,16.8899823 11.5796565,16.8902177 11.579575,16.8904139 C11.579575,16.8904139 11.579575,16.8904531 11.579575,16.8904531 C11.5795343,16.8905708 11.5794529,16.8906885 11.5794121,16.890767 C11.5794121,16.8908062 11.5793714,16.8908847 11.5793307,16.8909239 C11.5792492,16.8910416 11.5792085,16.8911593 11.5791271,16.8913163 C11.5790863,16.8913555 11.5790863,16.8913947 11.5790456,16.8914732 C11.5789642,16.8916301 11.5788827,16.8917478 11.5788013,16.8919048 C11.5788013,16.8919048 11.5788013,16.891944 11.5787605,16.8919832 C11.5561995,16.9354939 11.5428421,16.9811233 11.5379552,17.0268704 L11.2348475,19.3261508 L10.5428677,16.3299927 L18.0354474,12.0347122 L11.70081,16.7517995 C11.6515748,16.7868356 11.6098736,16.8331319 11.5802266,16.8891976 Z M11.8891578,20.5904333 L12.2744056,17.6678001 L14.1521421,18.5807404 L11.8891578,20.5904333 Z M18.52674,19.8287015 L15.0525874,18.1396304 C15.0467639,18.1366094 15.0408589,18.1337453 15.0348725,18.1309989 L12.7029835,16.9972878 L22.6797187,9.56809794 L18.52674,19.8287015 Z" id="Shape"></path>
                    </g>
                </g>
            </g>
        </g>
    </g>
</svg>